<?xml version="1.0" encoding="utf-8"?>
<!-- Generator: Adobe Illustrator 21.0.0, SVG Export Plug-In . SVG Version: 6.00 Build 0)  -->
<svg version="1.1" id="Layer_1" xmlns="http://www.w3.org/2000/svg" xmlns:xlink="http://www.w3.org/1999/xlink" x="0px" y="0px"
	 viewBox="0 0 512 512" style="enable-background:new 0 0 512 512;" xml:space="preserve">
<style type="text/css">
	.st0{fill:#FFA650;}
</style>
<g>
	<g>
		<path class="st0" d="M332.3,136.2H179.7c-24.4,0-44.2,19.8-44.2,44.2V333c0,24.4,19.8,44.2,44.2,44.2h152.6
			c24.4,0,44.2-19.8,44.2-44.2V180.4C376.5,156,356.7,136.2,332.3,136.2z M256,336c-43.7,0-79.3-35.6-79.3-79.3
			c0-43.7,35.6-79.3,79.3-79.3c43.7,0,79.3,35.6,79.3,79.3C335.3,300.4,299.7,336,256,336z M337.9,193.8c-10.4,0-18.8-8.4-18.8-18.8
			c0-10.3,8.4-18.8,18.8-18.8c10.3,0,18.8,8.4,18.8,18.8C356.6,185.4,348.2,193.8,337.9,193.8z"/>
		<path class="st0" d="M256,210.9c-25.2,0-45.8,20.5-45.8,45.8c0,25.3,20.6,45.8,45.8,45.8c25.3,0,45.8-20.6,45.8-45.8
			C301.8,231.4,281.3,210.9,256,210.9z"/>
		<path class="st0" d="M256,0C114.6,0,0,114.6,0,256s114.6,256,256,256s256-114.6,256-256S397.4,0,256,0z M410,333
			c0,42.8-34.8,77.7-77.7,77.7H179.7c-42.8,0-77.7-34.8-77.7-77.7V180.4c0-42.8,34.9-77.7,77.7-77.7h152.6
			c42.8,0,77.7,34.9,77.7,77.7V333z"/>
	</g>
</g>
</svg>
