<svg id="Capa_1" enable-background="new 0 0 512 512" height="512" viewBox="0 0 512 512" width="512" xmlns="http://www.w3.org/2000/svg"><path d="m44.206 80.926 211.787 423.574 212.427-424.855-124.243-48.097h-184.371z" fill="#ffe09f"/><path d="m348.879 113.658c-31.058-6.782-59.684-42.029-92.879-42.029s-61.821 35.247-92.879 42.029c-31.918 6.97-73.337-12.446-102.252.594l195.124 390.248 195.127-390.253c-28.915-13.03-70.327 6.38-102.241-.589z" fill="#fff0af"/><path d="m256 223.935c-45.116 0-87.708 10.711-125.473 29.632l125.466 250.932 125.469-250.938c-37.762-18.917-80.35-29.626-125.462-29.626z" fill="#fff5d7"/><circle cx="296.081" cy="352.194" fill="#e5646e" r="40.081"/><circle cx="159.806" cy="223.935" fill="#db4655" r="56.113"/><path d="m478.271 59.992c-69.518-34.831-144.302-52.492-222.271-52.492s-152.753 17.661-222.272 52.492c-7.914 3.965-11.116 13.598-7.151 21.516 3.965 7.914 13.605 11.12 21.516 7.151 65.022-32.577 134.971-49.094 207.907-49.094s142.885 16.518 207.907 49.095c7.91 3.969 17.551.763 21.516-7.151 3.964-7.919.763-17.552-7.152-21.517z" fill="#ffc269"/><circle cx="312.113" cy="183.855" fill="#db4655" r="32.065"/><path d="m328.145 199.887c-17.709 0-32.065-14.356-32.065-32.065 0-4.699 1.067-9.128 2.883-13.15-11.134 5.028-18.915 16.172-18.915 29.182 0 17.708 14.355 32.065 32.065 32.065 13.01 0 24.154-7.781 29.182-18.915-4.022 1.817-8.451 2.883-13.15 2.883z" fill="#bd4150"/><path d="m481.631 53.287c-70.571-35.359-146.484-53.287-225.631-53.287s-155.061 17.928-225.631 53.287c-11.599 5.81-16.308 19.977-10.497 31.581 2.815 5.619 7.651 9.806 13.618 11.79 2.44.811 4.95 1.214 7.448 1.214 1.086 0 2.169-.086 3.244-.237l54.451 108.901c-1.577 5.535-2.439 11.367-2.439 17.401 0 27.048 16.977 50.193 40.828 59.377l112.271 224.542c1.27 2.541 3.867 4.146 6.708 4.146s5.438-1.605 6.708-4.146l57.271-114.546c14.147-8.255 23.681-23.589 23.681-41.117 0-1.889-.109-3.759-.322-5.602l124.485-248.968c1.079.153 2.166.24 3.253.24 8.969 0 17.035-4.979 21.051-12.995 5.811-11.604 1.101-25.771-10.497-31.581zm-2.914 24.862c-1.457 2.907-4.384 4.713-7.64 4.713-1.318 0-2.593-.303-3.789-.899-.005-.003-.01-.006-.015-.009-.014-.007-.029-.012-.043-.019-6.344-3.177-12.826-6.248-19.269-9.126-3.782-1.691-8.217.007-9.907 3.789-1.689 3.782.007 8.217 3.789 9.907 3.996 1.785 8.004 3.653 11.986 5.569l-7.589 15.178c-17.227-7.891-37.493-5.043-57.106-2.28-15.329 2.159-29.807 4.2-42.242 1.373-11.777-2.677-23.594-10.599-36.104-18.986-17.038-11.421-34.654-23.23-54.788-23.23s-37.75 11.809-54.786 23.23c-12.511 8.387-24.328 16.309-36.104 18.986-9.433 2.144-20.197 1.354-28.521.428-4.116-.46-7.826 2.507-8.284 6.624s2.507 7.825 6.624 8.284c9.496 1.058 21.885 1.933 33.506-.708 14.492-3.294 28.035-12.373 41.132-21.153 15.872-10.64 30.863-20.689 46.434-20.689s30.562 10.05 46.434 20.689c13.097 8.78 26.64 17.859 41.132 21.153 15.122 3.437 31.663 1.107 47.659-1.146 18.053-2.544 35.117-4.925 48.292.872l-103.106 206.206c-3.049-4.844-6.99-9.172-11.745-12.75-3.31-2.49-8.012-1.826-10.502 1.483-2.491 3.31-1.827 8.012 1.483 10.502 8.27 6.224 13.013 15.719 13.013 26.053 0 17.965-14.616 32.581-32.581 32.581s-32.58-14.615-32.58-32.58c0-15.436 10.958-28.864 26.056-31.929 4.059-.824 6.682-4.783 5.858-8.842s-4.78-6.683-8.842-5.858c-22.06 4.478-38.072 24.088-38.072 46.629 0 3.969.496 7.822 1.416 11.51l-15.251 15.251c-2.929 2.929-2.929 7.677 0 10.606 1.464 1.465 3.384 2.197 5.303 2.197s3.839-.732 5.303-2.197l11.138-11.138c8.528 12.855 23.123 21.351 39.671 21.351 1.344 0 2.671-.07 3.987-.18l-44.067 88.135-76.457-152.913 22.716-7.572c3.93-1.31 6.053-5.557 4.744-9.487-1.311-3.93-5.558-6.053-9.487-4.743l-24.765 8.218-16.91-33.819c1.313.081 2.632.136 3.965.136 35.076 0 63.613-28.537 63.613-63.613 0-11.583-3.146-22.924-9.097-32.798-2.138-3.547-6.747-4.691-10.295-2.552-3.548 2.138-4.69 6.748-2.552 10.295 4.542 7.537 6.944 16.2 6.944 25.055 0 26.805-21.808 48.613-48.613 48.613-26.806 0-48.613-21.808-48.613-48.613s21.808-48.613 48.613-48.613c7.29 0 14.295 1.572 20.822 4.671 3.743 1.777 8.215.184 9.992-3.558s.184-8.215-3.558-9.992c-8.553-4.062-17.723-6.121-27.256-6.121-22.198 0-41.766 11.437-53.15 28.719l-16.436-32.871 15.844-5.281c3.93-1.31 6.053-5.557 4.744-9.487-1.31-3.929-5.558-6.054-9.487-4.743l-17.878 5.959-10.97-21.939c7.544-3.322 17.04-4.268 30.548-3.058 4.133.369 7.77-2.675 8.14-6.801.37-4.125-2.675-7.77-6.801-8.139-11.199-1.004-25.628-1.354-38.595 4.58l-7.595-15.19c62.061-29.867 128.576-45.008 197.83-45.008 54.417 0 107.493 9.417 157.755 27.989 3.887 1.435 8.199-.551 9.635-4.436s-.55-8.199-4.436-9.635c-51.932-19.188-106.758-28.918-162.954-28.918-74.113 0-145.193 16.785-211.271 49.892-2.033 1.02-4.343 1.186-6.508.467-2.164-.719-3.918-2.237-4.938-4.273-2.107-4.208-.401-9.345 3.805-11.452 68.466-34.304 142.118-51.698 218.912-51.698s150.446 17.394 218.912 51.698c4.205 2.106 5.912 7.244 3.805 11.451z"/><path d="m312.113 223.419c21.816 0 39.564-17.749 39.564-39.565s-17.749-39.564-39.564-39.564-39.564 17.749-39.564 39.564c-.001 21.817 17.748 39.565 39.564 39.565zm0-64.129c13.545 0 24.564 11.02 24.564 24.564s-11.02 24.565-24.564 24.565-24.564-11.02-24.564-24.565 11.019-24.564 24.564-24.564z"/><path d="m231.952 159.29c1.919 0 3.839-.732 5.303-2.197l24.048-24.048c2.929-2.929 2.929-7.677 0-10.606s-7.678-2.929-10.606 0l-24.048 24.048c-2.929 2.929-2.929 7.677 0 10.606 1.464 1.465 3.383 2.197 5.303 2.197z"/><path d="m330.858 242.681-24.048 24.048c-2.929 2.929-2.929 7.677 0 10.606 1.464 1.465 3.384 2.197 5.303 2.197s3.839-.732 5.303-2.197l24.048-24.048c2.929-2.929 2.929-7.677 0-10.606-2.928-2.93-7.677-2.93-10.606 0z"/><path d="m384.258 183.339c4.142 0 7.5-3.358 7.5-7.5v-24.049c0-4.142-3.358-7.5-7.5-7.5s-7.5 3.358-7.5 7.5v24.048c0 4.143 3.358 7.501 7.5 7.501z"/><path d="m243.824 241.743c-3.447 2.298-4.378 6.954-2.08 10.401l16.032 24.048c1.445 2.168 3.823 3.341 6.247 3.341 1.43 0 2.875-.408 4.153-1.26 3.447-2.298 4.378-6.954 2.08-10.401l-16.032-24.048c-2.298-3.447-6.955-4.377-10.4-2.081z"/><path d="m167.307 207.903v-8.016c0-4.142-3.358-7.5-7.5-7.5s-7.5 3.358-7.5 7.5v8.016c0 4.142 3.358 7.5 7.5 7.5s7.5-3.358 7.5-7.5z"/><path d="m287.483 355.716c-4.142 0-7.5 3.358-7.5 7.5s3.358 7.5 7.5 7.5h.08c4.142 0 7.46-3.358 7.46-7.5s-3.398-7.5-7.54-7.5z"/><path d="m170.536 234.665-8.016 8.016c-2.929 2.929-2.929 7.677 0 10.606 1.464 1.465 3.384 2.197 5.303 2.197s3.839-.732 5.303-2.197l8.016-8.016c2.929-2.929 2.929-7.677 0-10.606-2.929-2.93-7.678-2.93-10.606 0z"/><path d="m135.758 224.452h-.081c-4.142 0-7.46 3.358-7.46 7.5s3.398 7.5 7.541 7.5 7.5-3.358 7.5-7.5-3.358-7.5-7.5-7.5z"/><path d="m307.523 333.17c-4.142 0-7.46 3.358-7.46 7.5s3.398 7.5 7.541 7.5 7.5-3.358 7.5-7.5-3.358-7.5-7.5-7.5z"/></svg>